<?xml version="1.0" encoding="UTF-8"?>
<svg xmlns="http://www.w3.org/2000/svg" xmlns:xlink="http://www.w3.org/1999/xlink" width="255.93pt" height="255.93pt" viewBox="0 0 255.93 255.93" version="1.1">
<defs>
<clipPath id="clip1">
  <path d="M 0 0 L 255.929688 0 L 255.929688 255.929688 L 0 255.929688 Z M 0 0 "/>
</clipPath>
</defs>
<g id="surface1">
<g clip-path="url(#clip1)" clip-rule="nonzero">
<path style=" stroke:none;fill-rule:nonzero;fill:rgb(40.39917%,16.499329%,47.799683%);fill-opacity:1;" d="M 255.933594 255.929688 L 0 255.929688 L 0 -0.00390625 L 255.933594 -0.00390625 L 255.933594 255.929688 "/>
</g>
<path style=" stroke:none;fill-rule:nonzero;fill:rgb(100%,100%,100%);fill-opacity:1;" d="M 164.703125 97.792969 C 166.019531 96.636719 166.671875 95.1875 166.671875 93.433594 C 166.671875 91.839844 166.144531 90.53125 165.101563 89.503906 C 164.296875 88.691406 162.976563 87.894531 161.148438 87.132813 C 159.523438 86.441406 158.441406 85.84375 157.933594 85.355469 C 157.363281 84.828125 157.074219 84.089844 157.074219 83.144531 C 157.074219 82.265625 157.417969 81.550781 158.105469 80.984375 C 158.78125 80.433594 159.695313 80.15625 160.832031 80.15625 C 162.664063 80.15625 164.277344 80.660156 165.6875 81.679688 L 165.6875 78.226563 C 164.335938 77.558594 162.816406 77.226563 161.109375 77.226563 C 158.890625 77.226563 157.082031 77.8125 155.671875 79 C 154.269531 80.175781 153.558594 81.65625 153.558594 83.429688 C 153.558594 85.019531 154.015625 86.308594 154.921875 87.300781 C 155.671875 88.136719 156.949219 88.941406 158.742188 89.726563 C 160.484375 90.492188 161.65625 91.148438 162.257813 91.691406 C 162.859375 92.230469 163.160156 92.925781 163.160156 93.761719 C 163.160156 95.753906 161.800781 96.753906 159.085938 96.753906 C 157.050781 96.753906 155.199219 96.066406 153.519531 94.699219 L 153.519531 98.386719 C 155.027344 99.25 156.804688 99.675781 158.832031 99.675781 C 161.304688 99.675781 163.273438 99.046875 164.703125 97.792969 "/>
<path style=" stroke:none;fill-rule:nonzero;fill:rgb(100%,100%,100%);fill-opacity:1;" d="M 196.941406 99.160156 L 200.371094 99.160156 L 200.371094 80.652344 L 205.390625 80.652344 L 205.390625 77.75 L 200.371094 77.75 L 200.371094 74.449219 C 200.371094 71.425781 201.5625 69.910156 203.960938 69.910156 C 204.8125 69.910156 205.566406 70.101563 206.238281 70.476563 L 206.238281 67.378906 C 205.640625 67.132813 204.8125 67.007813 203.757813 67.007813 C 201.929688 67.007813 200.390625 67.585938 199.132813 68.742188 C 197.664063 70.074219 196.941406 71.925781 196.941406 74.277344 L 196.941406 77.75 L 193.300781 77.75 L 193.300781 80.652344 L 196.941406 80.652344 L 196.941406 99.160156 "/>
<path style=" stroke:none;fill-rule:nonzero;fill:rgb(100%,100%,100%);fill-opacity:1;" d="M 87.675781 72.3125 C 88.304688 72.3125 88.839844 72.097656 89.273438 71.664063 C 89.710938 71.234375 89.933594 70.707031 89.933594 70.074219 C 89.933594 69.457031 89.710938 68.929688 89.273438 68.5 C 88.839844 68.074219 88.304688 67.863281 87.675781 67.863281 C 87.066406 67.863281 86.535156 68.074219 86.097656 68.5 C 85.664063 68.929688 85.445313 69.457031 85.445313 70.074219 C 85.445313 70.734375 85.664063 71.265625 86.097656 71.6875 C 86.535156 72.105469 87.066406 72.3125 87.675781 72.3125 "/>
<path style=" stroke:none;fill-rule:nonzero;fill:rgb(100%,100%,100%);fill-opacity:1;" d="M 104.84375 99.675781 C 107.105469 99.675781 109.066406 99.175781 110.710938 98.167969 L 110.710938 94.910156 C 109.066406 96.140625 107.316406 96.753906 105.441406 96.753906 C 103.226563 96.753906 101.464844 96.027344 100.144531 94.578125 C 98.828125 93.121094 98.164063 91.15625 98.164063 88.660156 C 98.164063 86.070313 98.894531 83.988281 100.324219 82.4375 C 101.699219 80.917969 103.472656 80.15625 105.652344 80.15625 C 107.46875 80.15625 109.160156 80.710938 110.757813 81.832031 L 110.757813 78.3125 C 109.316406 77.59375 107.664063 77.226563 105.800781 77.226563 C 102.402344 77.226563 99.691406 78.308594 97.679688 80.46875 C 95.660156 82.625 94.65625 85.464844 94.65625 88.96875 C 94.65625 92.097656 95.578125 94.648438 97.414063 96.625 C 99.300781 98.65625 101.773438 99.675781 104.84375 99.675781 "/>
<path style=" stroke:none;fill-rule:nonzero;fill:rgb(100%,100%,100%);fill-opacity:1;" d="M 226.71875 76.121094 L 227.621094 76.121094 C 228.25 76.121094 228.695313 76.230469 228.957031 76.441406 C 229.191406 76.636719 229.304688 76.929688 229.304688 77.347656 C 229.304688 78.179688 228.808594 78.59375 227.804688 78.59375 L 226.71875 78.59375 Z M 226.71875 79.460938 L 227.386719 79.460938 C 227.855469 79.460938 228.28125 79.894531 228.683594 80.769531 L 229.472656 82.507813 L 230.707031 82.507813 L 229.757813 80.578125 C 229.359375 79.777344 228.957031 79.332031 228.554688 79.234375 L 228.554688 79.210938 C 229.136719 79.085938 229.59375 78.851563 229.910156 78.496094 C 230.234375 78.148438 230.398438 77.726563 230.398438 77.226563 C 230.398438 76.664063 230.195313 76.210938 229.800781 75.859375 C 229.335938 75.449219 228.652344 75.25 227.742188 75.25 L 225.699219 75.25 L 225.699219 82.507813 L 226.71875 82.507813 L 226.71875 79.460938 "/>
<path style=" stroke:none;fill-rule:nonzero;fill:rgb(100%,100%,100%);fill-opacity:1;" d="M 210.941406 93.320313 C 210.941406 97.527344 212.808594 99.636719 216.546875 99.636719 C 217.878906 99.636719 218.953125 99.410156 219.765625 98.945313 L 219.765625 96.019531 C 219.136719 96.480469 218.402344 96.714844 217.550781 96.714844 C 216.40625 96.714844 215.597656 96.410156 215.101563 95.796875 C 214.609375 95.199219 214.375 94.171875 214.375 92.734375 L 214.375 80.652344 L 219.765625 80.652344 L 219.765625 77.75 L 214.375 77.75 L 214.375 71.410156 C 213.171875 71.804688 212.035156 72.179688 210.941406 72.523438 L 210.941406 77.75 L 207.265625 77.75 L 207.265625 80.652344 L 210.941406 80.652344 L 210.941406 93.320313 "/>
<path style=" stroke:none;fill-rule:nonzero;fill:rgb(100%,100%,100%);fill-opacity:1;" d="M 224.332031 75.371094 C 225.289063 74.40625 226.496094 73.925781 227.941406 73.925781 C 229.34375 73.925781 230.539063 74.40625 231.511719 75.363281 C 232.480469 76.320313 232.96875 77.523438 232.96875 78.953125 C 232.96875 80.390625 232.480469 81.601563 231.503906 82.554688 C 230.523438 83.53125 229.335938 84.011719 227.941406 84.011719 C 226.539063 84.011719 225.351563 83.535156 224.378906 82.574219 C 223.394531 81.609375 222.898438 80.398438 222.898438 78.953125 C 222.898438 77.535156 223.375 76.339844 224.332031 75.371094 Z M 227.914063 84.589844 C 229.535156 84.589844 230.894531 84.042969 231.996094 82.953125 C 233.105469 81.871094 233.65625 80.527344 233.65625 78.921875 C 233.65625 77.289063 233.101563 75.9375 231.988281 74.867188 C 230.902344 73.824219 229.5625 73.296875 227.960938 73.296875 C 226.332031 73.296875 224.96875 73.847656 223.871094 74.9375 C 222.777344 76.039063 222.226563 77.378906 222.226563 78.96875 C 222.226563 80.59375 222.765625 81.9375 223.84375 83 C 224.921875 84.054688 226.28125 84.589844 227.914063 84.589844 "/>
<path style=" stroke:none;fill-rule:nonzero;fill:rgb(100%,100%,100%);fill-opacity:1;" d="M 85.921875 99.160156 L 89.34375 99.160156 L 89.34375 77.75 L 85.921875 77.75 L 85.921875 99.160156 "/>
<path style=" stroke:none;fill-rule:nonzero;fill:rgb(100%,100%,100%);fill-opacity:1;" d="M 134.148438 82.242188 C 135.425781 80.851563 137.132813 80.15625 139.265625 80.15625 C 141.425781 80.15625 143.105469 80.84375 144.308594 82.222656 C 145.542969 83.660156 146.160156 85.75 146.160156 88.492188 C 146.160156 91.109375 145.585938 93.128906 144.425781 94.558594 C 143.242188 96.019531 141.519531 96.753906 139.265625 96.753906 C 137.085938 96.753906 135.351563 96.03125 134.0625 94.585938 C 132.765625 93.148438 132.121094 91.140625 132.121094 88.574219 C 132.121094 85.84375 132.796875 83.738281 134.148438 82.242188 Z M 139.011719 99.675781 C 142.269531 99.675781 144.863281 98.644531 146.796875 96.582031 C 148.710938 94.523438 149.675781 91.785156 149.675781 88.371094 C 149.675781 84.902344 148.777344 82.175781 146.996094 80.191406 C 145.195313 78.222656 142.703125 77.226563 139.511719 77.226563 C 136.265625 77.226563 133.679688 78.179688 131.742188 80.066406 C 129.648438 82.105469 128.605469 84.980469 128.605469 88.703125 C 128.605469 91.96875 129.527344 94.59375 131.363281 96.582031 C 133.242188 98.644531 135.796875 99.675781 139.011719 99.675781 "/>
<path style=" stroke:none;fill-rule:nonzero;fill:rgb(100%,100%,100%);fill-opacity:1;" d="M 173.574219 88.574219 C 173.574219 85.84375 174.242188 83.738281 175.59375 82.242188 C 176.878906 80.851563 178.589844 80.15625 180.71875 80.15625 C 182.875 80.15625 184.558594 80.84375 185.757813 82.222656 C 186.996094 83.660156 187.617188 85.75 187.617188 88.492188 C 187.617188 91.109375 187.039063 93.128906 185.878906 94.558594 C 184.695313 96.019531 182.976563 96.753906 180.71875 96.753906 C 178.546875 96.753906 176.808594 96.03125 175.503906 94.585938 C 174.21875 93.148438 173.574219 91.140625 173.574219 88.574219 Z M 188.242188 96.582031 C 190.164063 94.523438 191.136719 91.785156 191.136719 88.371094 C 191.136719 84.902344 190.230469 82.175781 188.445313 80.191406 C 186.652344 78.222656 184.160156 77.226563 180.96875 77.226563 C 177.71875 77.226563 175.125 78.179688 173.191406 80.066406 C 171.109375 82.105469 170.058594 84.980469 170.058594 88.703125 C 170.058594 91.96875 170.980469 94.59375 172.816406 96.582031 C 174.695313 98.644531 177.25 99.675781 180.46875 99.675781 C 183.730469 99.675781 186.324219 98.644531 188.242188 96.582031 "/>
<path style=" stroke:none;fill-rule:nonzero;fill:rgb(100%,100%,100%);fill-opacity:1;" d="M 137.851563 151.855469 L 166.246094 151.855469 L 166.246094 143.523438 L 137.851563 143.523438 L 137.851563 117.371094 L 168.496094 117.371094 L 168.496094 109.042969 L 128.644531 109.042969 L 128.644531 187.652344 L 170.304688 187.652344 L 170.304688 179.324219 L 137.851563 179.324219 L 137.851563 151.855469 "/>
<path style=" stroke:none;fill-rule:nonzero;fill:rgb(100%,100%,100%);fill-opacity:1;" d="M 178.957031 117.371094 L 201.644531 117.371094 L 201.644531 187.652344 L 210.855469 187.652344 L 210.855469 117.371094 L 233.5 117.371094 L 233.5 109.042969 L 178.957031 109.042969 L 178.957031 117.371094 "/>
<path style=" stroke:none;fill-rule:nonzero;fill:rgb(100%,100%,100%);fill-opacity:1;" d="M 28.304688 176.527344 C 26.628906 176.527344 25.203125 177.125 24.03125 178.335938 C 22.859375 179.542969 22.277344 181 22.277344 182.722656 C 22.277344 184.402344 22.859375 185.851563 24.03125 187.078125 C 25.203125 188.300781 26.628906 188.917969 28.304688 188.917969 C 30.023438 188.917969 31.488281 188.300781 32.695313 187.078125 C 33.902344 185.851563 34.503906 184.402344 34.503906 182.722656 C 34.503906 181.042969 33.902344 179.585938 32.695313 178.363281 C 31.488281 177.132813 30.023438 176.527344 28.304688 176.527344 "/>
<path style=" stroke:none;fill-rule:nonzero;fill:rgb(100%,100%,100%);fill-opacity:1;" d="M 121.726563 78.546875 C 120.6875 79.398438 119.910156 80.597656 119.410156 82.164063 L 119.324219 82.164063 L 119.324219 77.75 L 115.898438 77.75 L 115.898438 99.160156 L 119.324219 99.160156 L 119.324219 88.242188 C 119.324219 85.757813 119.859375 83.816406 120.933594 82.410156 C 121.882813 81.160156 123.054688 80.535156 124.445313 80.535156 C 125.589844 80.535156 126.457031 80.757813 127.0625 81.222656 L 127.0625 77.667969 C 126.597656 77.472656 125.921875 77.378906 125.011719 77.378906 C 123.796875 77.378906 122.699219 77.765625 121.726563 78.546875 "/>
<path style=" stroke:none;fill-rule:nonzero;fill:rgb(100%,100%,100%);fill-opacity:1;" d="M 51.164063 73.214844 L 51.242188 73.214844 L 62.378906 99.160156 L 64.09375 99.160156 L 75.21875 73.214844 L 75.296875 73.214844 L 75.003906 99.160156 L 78.519531 99.160156 L 78.519531 69.179688 L 74.117188 69.179688 L 63.285156 93.675781 L 63.140625 93.675781 L 52.582031 69.179688 L 47.941406 69.179688 L 47.941406 99.160156 L 51.328125 99.160156 L 51.164063 73.214844 "/>
<path style=" stroke:none;fill-rule:nonzero;fill:rgb(100%,100%,100%);fill-opacity:1;" d="M 102.078125 175.4375 L 59.875 109.042969 L 47.917969 109.042969 L 47.917969 187.652344 L 57.132813 187.652344 L 57.132813 120.226563 L 100.058594 187.652344 L 111.234375 187.652344 L 111.234375 109.042969 L 102.078125 109.042969 L 102.078125 175.4375 "/>
</g>
</svg>
